# xmcd
#
# Track frame offsets:
# 150
# 17327
# 39957
#
# Disc length: 754 seconds
#
# Revision: 3
# Processed by: cddbd v1.5.2PL0 Copyright (c) Steve Scherf et al.
# Submitted via: plextools 2.35
#
DISCID=1202f003
DTITLE=Sam Brown - In The Light of All thats Gone Before
DYEAR=2000
DGENRE=Rock
TTITLE0=Sam Brown - In The Light of All thats Gone Before  (Radio Edit)
TTITLE1=Sam Brown - Brown Wood, Brown Water
TTITLE2=Sam Brown - RiseAbove
EXTD=CD Single - 3 Track Version (not the 4 track version)
EXTT0=(Radio Edit)
EXTT1=
EXTT2=
PLAYORDER=
